<svg xmlns="http://www.w3.org/2000/svg" xmlns:xlink="http://www.w3.org/1999/xlink" viewBox="0,0,256,256" width="50px" height="50px"><g fill="#ffffff" fill-rule="nonzero" stroke="none" stroke-width="1" stroke-linecap="butt" stroke-linejoin="miter" stroke-miterlimit="10" stroke-dasharray="" stroke-dashoffset="0" font-family="none" font-weight="none" font-size="none" text-anchor="none" style="mix-blend-mode: normal"><g transform="scale(5.12,5.12)"><path d="M25,1c-5.32713,0 -9.39588,4.95314 -9.83398,11h-10.10742c-1.135,0 -2.05922,0.981 -1.99609,2.11328l1.72461,30.17188c0.14947,2.63699 2.34979,4.71484 4.99023,4.71484h30.44531c2.64119,0 4.84078,-2.07817 4.99023,-4.71484l1.72461,-30.16992c0.06514,-1.13309 -0.86109,-2.11523 -1.99609,-2.11523h-10.10742c-0.43811,-6.04686 -4.50685,-11 -9.83398,-11zM25,3c4.03694,0 7.40892,3.88679 7.83594,9h-15.67188c0.42701,-5.11321 3.799,-9 7.83594,-9zM5.05859,14h10.77344c0.10799,0.01785 0.21818,0.01785 0.32617,0h17.67383c0.10799,0.01785 0.21818,0.01785 0.32617,0h10.7832l-1.72461,30.17188c-0.09054,1.59732 -1.39334,2.82813 -2.99414,2.82813h-30.44531c-1.59956,0 -2.90362,-1.23111 -2.99414,-2.82812l-1.72461,-30.16992zM25.07422,18.00195c-4.314,0 -7.56641,2.68795 -7.56641,6.25195c0,4.03 3.74769,5.39942 7.05469,6.60742c4.004,1.463 6.43555,2.58019 6.43555,5.74219c0,2.442 -2.73089,4.42969 -6.08789,4.42969c-3.755,0 -6.93675,-2.74153 -6.96875,-2.76953l-1.11523,1.64258c0.812,0.658 4.09498,3.10156 8.08398,3.10156c4.52,0 8.06255,-2.8133 8.06055,-6.4043c0,-4.77 -4.10647,-6.2727 -7.73047,-7.5957c-3.583,-1.311 -5.75977,-2.28291 -5.75977,-4.75391c0,-2.478 2.35275,-4.27734 5.59375,-4.27734c2.161,0 4.0415,0.81814 5.0625,1.36914c0.172,0.092 0.62495,0.3642 0.87695,0.5332l1.02148,-1.66211c-0.234,-0.152 -3.11394,-2.21484 -6.96094,-2.21484z"></path></g></g></svg>