<?xml version="1.0" encoding="UTF-8"?>
<!DOCTYPE svg PUBLIC "-//W3C//DTD SVG 1.1//EN" "http://www.w3.org/Graphics/SVG/1.1/DTD/svg11.dtd">
<svg xmlns="http://www.w3.org/2000/svg" version="1.1" width="640px" height="127px" style="shape-rendering:geometricPrecision; text-rendering:geometricPrecision; image-rendering:optimizeQuality; fill-rule:evenodd; clip-rule:evenodd" xmlns:xlink="http://www.w3.org/1999/xlink">
<g><path style="opacity:0.004" fill="#3a434b" d="M 498.5,10.5 C 499.833,11.1667 499.833,11.1667 498.5,10.5 Z"/></g>
<g><path style="opacity:0.004" fill="#39484e" d="M 572.5,11.5 C 573.833,12.1667 573.833,12.1667 572.5,11.5 Z"/></g>
<g><path style="opacity:0.999" fill="#eff2f4" d="M 498.5,11.5 C 503.199,14.7762 504.365,19.1096 502,24.5C 498.808,28.0654 494.975,29.0654 490.5,27.5C 489.833,26.1667 488.833,25.1667 487.5,24.5C 487.5,24.1667 487.5,23.8333 487.5,23.5C 487.264,20.3915 487.597,17.3915 488.5,14.5C 490.992,10.7341 494.326,9.73409 498.5,11.5 Z"/></g>
<g><path style="opacity:1" fill="#f1f4f6" d="M 572.5,12.5 C 574.326,14.1475 575.66,16.1475 576.5,18.5C 575.732,21.3693 574.399,24.0359 572.5,26.5C 569.927,27.5552 567.261,27.7218 564.5,27C 562.249,26.2525 560.916,24.7525 560.5,22.5C 560.405,19.3033 561.072,16.3033 562.5,13.5C 565.344,9.83727 568.678,9.50393 572.5,12.5 Z"/></g>
<g><path style="opacity:0.997" fill="#eef0f2" d="M 242.5,45.5 C 244.833,43.5 247.167,41.5 249.5,39.5C 250.906,39.0269 251.573,38.0269 251.5,36.5C 252.167,35.5 252.833,34.5 253.5,33.5C 256.884,33.6604 260.217,33.327 263.5,32.5C 265,32.4528 266,33.1195 266.5,34.5C 260.152,41.5181 254.152,48.8515 248.5,56.5C 253.517,62.5152 258.85,68.1819 264.5,73.5C 264.5,73.8333 264.5,74.1667 264.5,74.5C 265.584,76.3186 266.918,77.9853 268.5,79.5C 265.232,80.487 261.898,80.8204 258.5,80.5C 257.5,80.5 256.5,80.5 255.5,80.5C 253.529,78.1918 251.529,75.8585 249.5,73.5C 249.167,72.5 248.5,71.8333 247.5,71.5C 247.5,70.8333 247.167,70.5 246.5,70.5C 246.5,69.8333 246.167,69.5 245.5,69.5C 245.5,68.8333 245.167,68.5 244.5,68.5C 241.819,64.6601 238.153,62.6601 233.5,62.5C 233.5,65.1667 233.5,67.8333 233.5,70.5C 233.28,74.0442 233.28,77.3776 233.5,80.5C 230.082,80.7037 226.416,80.7037 222.5,80.5C 222.102,58.1919 222.102,35.8586 222.5,13.5C 226.167,13.5 229.833,13.5 233.5,13.5C 234.052,25.0773 234.052,36.5773 233.5,48C 234.09,49.5095 234.756,51.0095 235.5,52.5C 238.263,50.4036 240.597,48.0702 242.5,45.5 Z"/></g>
<g><path style="opacity:0.994" fill="#f1f4f6" d="M 523.5,26.5 C 522.508,33.9818 522.175,41.6484 522.5,49.5C 522.34,51.1992 522.506,52.8659 523,54.5C 529.14,48.3604 535.306,42.1937 541.5,36C 541.043,35.586 540.709,35.086 540.5,34.5C 545.048,33.8076 549.548,33.1409 554,32.5C 555.802,34.2729 555.635,35.9395 553.5,37.5C 548.128,42.8698 543.128,48.5365 538.5,54.5C 536.618,55.221 536.285,56.221 537.5,57.5C 540.547,60.5448 543.213,63.8781 545.5,67.5C 545.894,69.7099 547.227,71.0432 549.5,71.5C 549.738,73.4044 550.738,74.7377 552.5,75.5C 552.833,75.5 553.167,75.5 553.5,75.5C 553.5,76.1667 553.833,76.5 554.5,76.5C 554.5,76.8333 554.5,77.1667 554.5,77.5C 553.552,78.9779 552.219,79.9779 550.5,80.5C 548.143,80.6633 545.81,80.4966 543.5,80C 538.833,75 534.167,70 529.5,65C 528.473,64.4867 527.473,63.9867 526.5,63.5C 526.167,62.1667 525.833,62.1667 525.5,63.5C 524.5,63.5 523.5,63.5 522.5,63.5C 522.666,69.1764 522.499,74.8431 522,80.5C 521.667,80.8333 521.333,81.1667 521,81.5C 517.667,80.8333 514.333,80.1667 511,79.5C 511.394,57.5203 511.561,35.5203 511.5,13.5C 515.167,13.5 518.833,13.5 522.5,13.5C 522.586,17.8566 522.92,22.19 523.5,26.5 Z"/></g>
<g><path style="opacity:0.834" fill="#aeb9c0" d="M 152.5,77.5 C 152.167,77.5 151.833,77.5 151.5,77.5C 151.333,61.4965 151.5,45.4965 152,29.5C 157.407,28.5268 162.907,28.1934 168.5,28.5C 168.5,25.1667 168.5,21.8333 168.5,18.5C 153.5,18.5 138.5,18.5 123.5,18.5C 123.806,21.3854 123.473,24.0521 122.5,26.5C 122.5,23.5 122.5,20.5 122.5,17.5C 137.412,16.7503 152.412,16.5837 167.5,17C 170.395,20.5909 171.061,24.5909 169.5,29C 164.177,29.4994 158.844,29.666 153.5,29.5C 153.83,45.6754 153.496,61.6754 152.5,77.5 Z"/></g>
<g><path style="opacity:0.998" fill="#f5f7f8" d="M 473.5,21.5 C 473.5,22.1667 473.833,22.5 474.5,22.5C 475.248,24.3325 476.248,25.9991 477.5,27.5C 479.726,31.654 480.059,35.9873 478.5,40.5C 477.492,43.0284 475.826,45.1951 473.5,47C 478.344,49.8607 481.344,54.0273 482.5,59.5C 481.527,61.9479 481.194,64.6146 481.5,67.5C 479.183,71.4818 476.183,74.8151 472.5,77.5C 470.297,77.6036 468.297,78.2702 466.5,79.5C 465.833,79.5 465.5,79.8333 465.5,80.5C 454.5,80.5 443.5,80.5 432.5,80.5C 432.5,71.5 432.5,62.5 432.5,53.5C 433.495,41.6783 433.828,29.6783 433.5,17.5C 443.478,16.4677 453.478,16.3011 463.5,17C 467.236,17.703 470.569,19.203 473.5,21.5 Z M 443.5,29.5 C 449.319,28.3475 455.319,28.1808 461.5,29C 468.161,31.9791 469.161,36.3124 464.5,42C 457.924,43.3774 451.257,43.8774 444.5,43.5C 444.819,38.6367 444.486,33.97 443.5,29.5 Z M 463.5,67.5 C 457.167,67.5 450.833,67.5 444.5,67.5C 444.5,64.8333 444.5,62.1667 444.5,59.5C 444.5,57.8333 444.5,56.1667 444.5,54.5C 452.585,54.0989 460.585,54.5989 468.5,56C 471.66,61.852 469.993,65.6854 463.5,67.5 Z"/></g>
<g><path style="opacity:1" fill="#fbfdfd" d="M 151.5,77.5 C 151.5,78.1667 151.5,78.8333 151.5,79.5C 148.5,80.8333 145.5,80.8333 142.5,79.5C 141.906,62.5229 141.906,45.5229 142.5,28.5C 136.5,28.5 130.5,28.5 124.5,28.5C 123.167,28.5 122.5,27.8333 122.5,26.5C 123.473,24.0521 123.806,21.3854 123.5,18.5C 138.5,18.5 153.5,18.5 168.5,18.5C 168.5,21.8333 168.5,25.1667 168.5,28.5C 162.907,28.1934 157.407,28.5268 152,29.5C 151.5,45.4965 151.333,61.4965 151.5,77.5 Z"/></g>
<g><path style="opacity:0.508" fill="#97a2a8" d="M 562.5,13.5 C 561.072,16.3033 560.405,19.3033 560.5,22.5C 559.378,20.7116 559.211,18.7116 560,16.5C 560.236,14.8807 561.069,13.8807 562.5,13.5 Z"/></g>
<g><path style="opacity:0.004" fill="#363a43" d="M 473.5,20.5 C 474.833,21.1667 474.833,21.1667 473.5,20.5 Z"/></g>
<g><path style="opacity:0.463" fill="#77868c" d="M 488.5,14.5 C 487.597,17.3915 487.264,20.3915 487.5,23.5C 485.63,21.1816 484.963,18.6816 485.5,16C 486.244,14.9614 487.244,14.4614 488.5,14.5 Z"/></g>
<g><path style="opacity:1" fill="#122533" d="M 66.5,104.5 C 66.5,101.833 66.5,99.1667 66.5,96.5C 69.0163,96.2447 71.3496,95.4114 73.5,94C 77.3333,90.1667 81.1667,86.3333 85,82.5C 87.1846,79.1129 88.6846,75.4462 89.5,71.5C 87.1667,71.5 84.8333,71.5 82.5,71.5C 80.3698,80.2995 75.0365,86.2995 66.5,89.5C 66.1667,89.5 65.8333,89.5 65.5,89.5C 65.2148,87.712 65.5481,86.0453 66.5,84.5C 73.782,80.5932 78.1153,74.5932 79.5,66.5C 87.3516,66.8254 95.0182,66.492 102.5,65.5C 105.322,64.2108 105.989,62.2108 104.5,59.5C 100.56,57.7639 98.8933,59.0972 99.5,63.5C 91.5,63.5 83.5,63.5 75.5,63.5C 75.3437,72.481 71.177,78.8144 63,82.5C 62.5004,89.4921 62.3337,96.4921 62.5,103.5C 62.5,103.833 62.5,104.167 62.5,104.5C 61.6712,97.3448 61.1712,90.0115 61,82.5C 60.3333,83.1667 59.6667,83.8333 59,84.5C 58.5004,91.1583 58.3337,97.825 58.5,104.5C 57.5088,97.6866 57.1755,90.6866 57.5,83.5C 56.1667,83.5 54.8333,83.5 53.5,83.5C 44.8482,82.1753 38.8482,77.5087 35.5,69.5C 35.5,67.5 35.5,65.5 35.5,63.5C 28.1667,63.5 20.8333,63.5 13.5,63.5C 13.7373,62.209 13.404,61.209 12.5,60.5C 12.5,60.1667 12.5,59.8333 12.5,59.5C 13.1667,59.5 13.8333,59.5 14.5,59.5C 21.5,59.5 28.5,59.5 35.5,59.5C 37.1755,51.8217 41.5089,46.155 48.5,42.5C 49.7368,34.4859 49.7368,26.4859 48.5,18.5C 49.6126,10.5279 53.7792,8.52795 61,12.5C 62.2525,15.0135 62.7525,17.6802 62.5,20.5C 67.084,21.5278 71.584,22.8611 76,24.5C 86.2974,20.8004 90.464,24.3004 88.5,35C 93.2213,39.9424 96.2213,45.7757 97.5,52.5C 104.121,52.3028 108.454,55.3028 110.5,61.5C 108.76,67.7952 104.593,71.1285 98,71.5C 96.6572,77.827 93.9905,83.4937 90,88.5C 91.3476,92.6213 90.181,95.9546 86.5,98.5C 84.1667,99.8333 81.8333,99.8333 79.5,98.5C 75.5104,101.273 71.1771,103.273 66.5,104.5 Z"/></g>
<g><path style="opacity:0.039" fill="#414b5b" d="M 576.5,18.5 C 577.598,19.6009 577.765,20.9343 577,22.5C 576,24.1667 575,25.8333 574,27.5C 573.617,26.944 573.117,26.6107 572.5,26.5C 574.399,24.0359 575.732,21.3693 576.5,18.5 Z"/></g>
<g><path style="opacity:0.004" fill="#414850" d="M 474.5,22.5 C 476.701,22.8584 478.035,24.1917 478.5,26.5C 478.376,27.1067 478.043,27.44 477.5,27.5C 476.248,25.9991 475.248,24.3325 474.5,22.5 Z"/></g>
<g><path style="opacity:0.004" fill="#445459" d="M 487.5,24.5 C 486.833,25.1667 486.833,25.1667 487.5,24.5 Z"/></g>
<g><path style="opacity:0.004" fill="#3b4857" d="M 509.5,18.5 C 510.638,21.3035 510.805,24.3035 510,27.5C 509.502,24.5184 509.335,21.5184 509.5,18.5 Z"/></g>
<g><path style="opacity:0.008" fill="#3d4452" d="M 490.5,27.5 C 491.463,28.3635 491.463,29.0302 490.5,29.5C 489.227,28.7435 489.227,28.0768 490.5,27.5 Z"/></g>
<g><path style="opacity:0.004" fill="#3f4f52" d="M 124.5,29.5 C 123.833,30.1667 123.833,30.1667 124.5,29.5 Z"/></g>
<g><path style="opacity:1" fill="#5be7f4" d="M 80.5,27.5 C 85.3276,27.3852 86.6609,29.5519 84.5,34C 78.7377,34.4178 77.4044,32.2511 80.5,27.5 Z"/></g>
<g><path style="opacity:0.997" fill="#f0f2f4" d="M 300.5,33.5 C 302.667,34.198 304.5,35.5313 306,37.5C 306.333,37.1667 306.667,36.8333 307,36.5C 307.333,37.5 307.667,38.5 308,39.5C 308.333,39.1667 308.667,38.8333 309,38.5C 309.667,40.5 310.333,42.5 311,44.5C 312.045,55.1499 312.878,65.8166 313.5,76.5C 313.43,77.7716 313.097,78.9383 312.5,80C 309.183,80.4983 305.85,80.665 302.5,80.5C 302.5,79.1667 302.5,77.8333 302.5,76.5C 302.719,75.325 302.386,74.325 301.5,73.5C 300.702,73.9569 300.369,74.6236 300.5,75.5C 299.284,77.4509 297.618,78.9509 295.5,80C 286.062,82.188 278.228,79.688 272,72.5C 269.029,65.2022 270.529,59.0355 276.5,54C 283.909,49.3866 291.743,48.5533 300,51.5C 300.5,51.1667 301,50.8333 301.5,50.5C 299.867,46.3671 296.867,43.8671 292.5,43C 286.82,43.0557 281.154,43.5557 275.5,44.5C 274.539,41.5739 273.873,38.5739 273.5,35.5C 280.336,33.3326 287.336,31.9993 294.5,31.5C 296.45,32.3721 298.45,33.0388 300.5,33.5 Z M 288.5,58.5 C 291.187,58.3359 293.854,58.5026 296.5,59C 298.651,59.2649 300.318,60.2649 301.5,62C 297.786,70.7257 291.786,72.7257 283.5,68C 281.006,65.5769 281.006,63.2436 283.5,61C 285.315,60.2432 286.981,59.4098 288.5,58.5 Z"/></g>
<g><path style="opacity:0.012" fill="#2f373a" d="M 300.5,32.5 C 301.833,33.1667 301.833,33.1667 300.5,32.5 Z"/></g>
<g><path style="opacity:0.247" fill="#8f989e" d="M 349.5,32.5 C 347.167,33.8333 344.833,33.8333 342.5,32.5C 344.91,31.5615 347.244,31.5615 349.5,32.5 Z"/></g>
<g><path style="opacity:0.753" fill="#94a0a5" d="M 399.5,33.5 C 397.585,33.7845 395.919,33.4511 394.5,32.5C 396.338,31.3217 398.005,31.655 399.5,33.5 Z"/></g>
<g><path style="opacity:0.004" fill="#374855" d="M 509.5,30.5 C 510.598,31.6009 510.765,32.9343 510,34.5C 509.51,33.2068 509.343,31.8734 509.5,30.5 Z"/></g>
<g><path style="opacity:0.004" fill="#2c363e" d="M 584.5,33.5 C 584.897,32.475 585.563,32.3083 586.5,33C 585.906,33.4643 585.239,33.631 584.5,33.5 Z"/></g>
<g><path style="opacity:0.97" fill="#f3f6f7" d="M 171.5,33.5 C 174.287,34.4767 177.287,34.81 180.5,34.5C 180.187,38.0419 180.521,41.3752 181.5,44.5C 181.334,51.175 181.5,57.8417 182,64.5C 187.989,71.0526 193.989,71.0526 200,64.5C 201.229,54.5588 201.896,44.5588 202,34.5C 204.719,33.5562 207.552,33.2229 210.5,33.5C 211.145,43.932 211.811,54.2653 212.5,64.5C 212.876,69.2732 211.876,73.6066 209.5,77.5C 207.886,79.0746 205.886,79.7413 203.5,79.5C 203.762,78.0222 203.429,76.6888 202.5,75.5C 201.893,75.6236 201.56,75.9569 201.5,76.5C 201.167,77.5 200.5,78.1667 199.5,78.5C 198.508,78.3284 197.842,78.6618 197.5,79.5C 186.516,82.779 178.016,79.4457 172,69.5C 170.675,64.5988 170.175,59.5988 170.5,54.5C 170.5,53.5 170.5,52.5 170.5,51.5C 170.177,45.31 170.51,39.31 171.5,33.5 Z"/></g>
<g><path style="opacity:0.997" fill="#f0f3f4" d="M 342.5,32.5 C 344.833,33.8333 347.167,33.8333 349.5,32.5C 354.378,34.5393 358.212,37.8726 361,42.5C 363.047,50.6967 363.88,59.0301 363.5,67.5C 362.515,71.6344 362.182,75.9677 362.5,80.5C 359.167,80.5 355.833,80.5 352.5,80.5C 352.328,70.5439 352.162,60.5439 352,50.5C 348.328,44.4346 343.162,42.9346 336.5,46C 334.973,47.0319 333.64,48.1986 332.5,49.5C 331.167,54.8333 331.167,60.1667 332.5,65.5C 332.5,70.1667 332.5,74.8333 332.5,79.5C 329.287,79.19 326.287,79.5233 323.5,80.5C 321.541,75.1064 320.541,69.2731 320.5,63C 321.34,53.5183 321.673,44.0183 321.5,34.5C 325.759,34.0025 329.759,34.6692 333.5,36.5C 336.323,34.7807 339.323,33.4473 342.5,32.5 Z"/></g>
<g><path style="opacity:0.995" fill="#f2f4f6" d="M 394.5,32.5 C 395.919,33.4511 397.585,33.7845 399.5,33.5C 400.117,33.3893 400.617,33.056 401,32.5C 402.666,34.9957 404.5,37.329 406.5,39.5C 406.783,40.2891 407.283,40.9558 408,41.5C 408.687,39.4325 408.52,37.4325 407.5,35.5C 410.768,34.513 414.102,34.1796 417.5,34.5C 417.5,35.5 417.5,36.5 417.5,37.5C 416.523,40.2869 416.19,43.2869 416.5,46.5C 416.5,56.8333 416.5,67.1667 416.5,77.5C 416.5,80.1667 416.5,82.8333 416.5,85.5C 415.599,86.2905 414.932,87.2905 414.5,88.5C 413.473,90.1942 412.139,91.5275 410.5,92.5C 408.887,92.9443 407.72,93.9443 407,95.5C 406.667,95.1667 406.333,94.8333 406,94.5C 404.353,96.6313 404.686,98.6313 407,100.5C 407.494,102.134 407.66,103.801 407.5,105.5C 406.167,106.167 405.167,107.167 404.5,108.5C 404.5,108.833 404.5,109.167 404.5,109.5C 403.21,110.058 402.377,111.058 402,112.5C 400.044,112.216 397.877,112.216 395.5,112.5C 394.652,111.375 393.652,111.375 392.5,112.5C 391.514,108.03 391.181,103.363 391.5,98.5C 391.389,97.8826 391.056,97.3826 390.5,97C 388.527,96.5045 386.527,96.3379 384.5,96.5C 384.198,99.0593 384.532,101.393 385.5,103.5C 385.784,106.777 385.451,109.943 384.5,113C 383.5,113.667 382.5,113.667 381.5,113C 379.12,109.742 376.62,106.576 374,103.5C 374.456,106.428 374.456,109.428 374,112.5C 372.951,113.517 371.784,113.684 370.5,113C 369.643,107.574 368.977,102.074 368.5,96.5C 368.833,95.1667 369.167,93.8333 369.5,92.5C 373.14,94.4754 376.14,97.142 378.5,100.5C 378.811,101.478 379.478,102.145 380.5,102.5C 381.797,100.027 381.797,97.6934 380.5,95.5C 376.821,93.1383 374.987,89.8049 375,85.5C 375.347,83.8198 376.347,82.8198 378,82.5C 380.594,83.2848 382.761,84.6182 384.5,86.5C 384.611,87.1174 384.944,87.6174 385.5,88C 389.833,88.6667 394.167,88.6667 398.5,88C 399.056,87.6174 399.389,87.1174 399.5,86.5C 403.941,83.3621 405.774,79.0288 405,73.5C 402.522,75.8196 399.689,77.4863 396.5,78.5C 392.434,78.693 388.434,78.3597 384.5,77.5C 383.833,77.5 383.167,77.5 382.5,77.5C 372.133,71.0888 367.966,61.7555 370,49.5C 373.524,38.2627 381.691,32.596 394.5,32.5 Z M 400.5,65.5 C 394.997,68.3137 389.664,67.9803 384.5,64.5C 377.44,48.4711 382.44,41.9711 399.5,45C 408.487,51.4295 408.821,58.2628 400.5,65.5 Z M 398.5,99.5 C 399.167,99.5 399.833,99.5 400.5,99.5C 401.833,101.833 401.833,104.167 400.5,106.5C 399.417,106.539 398.417,106.873 397.5,107.5C 397.167,106.167 396.833,104.833 396.5,103.5C 396.585,101.667 397.252,100.334 398.5,99.5 Z"/></g>
<g><path style="opacity:0.997" fill="#f1f4f5" d="M 620.5,37.5 C 622.9,39.6892 624.567,42.3559 625.5,45.5C 625.811,57.2473 625.478,68.9139 624.5,80.5C 621.061,80.7471 617.728,80.4137 614.5,79.5C 614.5,74.8333 614.5,70.1667 614.5,65.5C 615.468,63.3926 615.802,61.0593 615.5,58.5C 615.665,55.1501 615.498,51.8168 615,48.5C 614.617,47.944 614.117,47.6107 613.5,47.5C 607.661,42.2475 601.828,42.2475 596,47.5C 594.907,51.2164 594.407,55.0497 594.5,59C 595.035,65.5066 595.202,72.0066 595,78.5C 592.894,80.291 590.394,80.9577 587.5,80.5C 586.791,79.596 585.791,79.2627 584.5,79.5C 584.828,68.9865 584.494,58.6532 583.5,48.5C 583.669,43.8189 584.002,39.1522 584.5,34.5C 587.167,34.5 589.833,34.5 592.5,34.5C 592.5,35.5 592.5,36.5 592.5,37.5C 594.179,37.7148 595.179,37.0481 595.5,35.5C 604.32,30.9731 612.654,31.6398 620.5,37.5 Z"/></g>
<g><path style="opacity:1" fill="#63ecee" d="M 53.5,15.5 C 55.9484,15.0101 57.615,15.8434 58.5,18C 57.5454,26.1238 57.2121,34.2904 57.5,42.5C 56.1667,42.5 54.8333,42.5 53.5,42.5C 53.3731,33.3746 53.3731,24.3746 53.5,15.5 Z"/></g>
<g><path style="opacity:0.192" fill="#7391a0" d="M 253.5,33.5 C 252.833,34.5 252.167,35.5 251.5,36.5C 251.238,35.0222 251.571,33.6888 252.5,32.5C 253.107,32.6236 253.44,32.9569 253.5,33.5 Z"/></g>
<g><path style="opacity:0.998" fill="#f2f5f7" d="M 490.5,74.5 C 490.5,69.8333 490.5,65.1667 490.5,60.5C 490.5,51.5 490.5,42.5 490.5,33.5C 494.167,33.5 497.833,33.5 501.5,33.5C 501.5,49.1667 501.5,64.8333 501.5,80.5C 497.833,80.5 494.167,80.5 490.5,80.5C 490.5,78.5 490.5,76.5 490.5,74.5 Z"/></g>
<g><path style="opacity:0.026" fill="#424d57" d="M 560.5,33.5 C 559.796,35.3442 558.463,35.8442 556.5,35C 557.563,33.8118 558.897,33.3118 560.5,33.5 Z"/></g>
<g><path style="opacity:0.999" fill="#f7f9fa" d="M 562.5,32.5 C 565.902,32.3424 569.236,32.6758 572.5,33.5C 572.172,45.0123 572.505,56.3456 573.5,67.5C 573.5,68.1667 573.5,68.8333 573.5,69.5C 573.232,71.099 573.566,72.4324 574.5,73.5C 574.5,74.1667 574.5,74.8333 574.5,75.5C 573.375,76.3478 573.375,77.3478 574.5,78.5C 573.129,79.7868 571.295,80.4535 569,80.5C 564.422,81.6154 562.256,79.9488 562.5,75.5C 562.5,61.1667 562.5,46.8333 562.5,32.5 Z"/></g>
<g><path style="opacity:1" fill="#767b83" d="M 46.5,27.5 C 46.5,29.8333 46.5,32.1667 46.5,34.5C 37.7526,37.4128 31.7526,43.2461 28.5,52C 26.0982,52.8141 23.7649,52.6474 21.5,51.5C 26.6074,40.0577 34.9408,32.0577 46.5,27.5 Z"/></g>
<g><path style="opacity:0.004" fill="#374049" d="M 168.5,35.5 C 169.833,36.1667 169.833,36.1667 168.5,35.5 Z"/></g>
<g><path style="opacity:1" fill="#9ca8b4" d="M 592.5,34.5 C 593.609,34.5569 594.609,34.8902 595.5,35.5C 595.179,37.0481 594.179,37.7148 592.5,37.5C 592.5,36.5 592.5,35.5 592.5,34.5 Z"/></g>
<g><path style="opacity:0.004" fill="#3c434e" d="M 620.5,36.5 C 621.833,37.1667 621.833,37.1667 620.5,36.5 Z"/></g>
<g><path style="opacity:0.004" fill="#414951" d="M 553.5,37.5 C 554.833,38.1667 554.833,38.1667 553.5,37.5 Z"/></g>
<g><path style="opacity:0.024" fill="#49525f" d="M 573.5,36.5 C 576.167,37.1667 576.167,37.8333 573.5,38.5C 573.5,37.8333 573.5,37.1667 573.5,36.5 Z"/></g>
<g><path style="opacity:0.004" fill="#9da7aa" d="M 181.5,44.5 C 180.521,41.3752 180.187,38.0419 180.5,34.5C 177.287,34.81 174.287,34.4767 171.5,33.5C 174.579,33.7399 177.579,33.4066 180.5,32.5C 181.491,36.4454 181.824,40.4454 181.5,44.5 Z"/></g>
<g><path style="opacity:0.341" fill="#64849a" d="M 251.5,36.5 C 251.573,38.0269 250.906,39.0269 249.5,39.5C 249.427,37.9731 250.094,36.9731 251.5,36.5 Z"/></g>
<g><path style="opacity:0.848" fill="#8f9ca8" d="M 433.5,17.5 C 433.828,29.6783 433.495,41.6783 432.5,53.5C 431.513,41.3332 431.846,29.3332 433.5,17.5 Z"/></g>
<g><path style="opacity:1" fill="#368894" d="M 64.5,39.5 C 62.9519,39.8212 62.2852,40.8212 62.5,42.5C 61.5655,41.4324 61.2322,40.099 61.5,38.5C 62.791,38.2627 63.791,38.596 64.5,39.5 Z"/></g>
<g><path style="opacity:0.125" fill="#778692" d="M 417.5,34.5 C 414.102,34.1796 410.768,34.513 407.5,35.5C 408.52,37.4325 408.687,39.4325 408,41.5C 407.283,40.9558 406.783,40.2891 406.5,39.5C 406.954,37.7411 406.954,35.7411 406.5,33.5C 410.371,33.185 414.038,33.5184 417.5,34.5 Z"/></g>
<g><path style="opacity:0.016" fill="#405264" d="M 242.5,45.5 C 240.049,43.7902 240.049,41.7902 242.5,39.5C 243.308,39.8076 243.975,40.3076 244.5,41C 242.963,42.1096 242.297,43.6096 242.5,45.5 Z"/></g>
<g><path style="opacity:0.004" fill="#3a454e" d="M 478.5,40.5 C 479.833,41.1667 479.833,41.1667 478.5,40.5 Z"/></g>
<g><path style="opacity:1" fill="#4ee4f2" d="M 64.5,39.5 C 68.5416,40.8514 71.8749,43.1848 74.5,46.5C 73.791,47.404 72.791,47.7373 71.5,47.5C 68.6884,45.5919 65.6884,43.9252 62.5,42.5C 62.2852,40.8212 62.9519,39.8212 64.5,39.5 Z"/></g>
<g><path style="opacity:0.059" fill="#52616b" d="M 523.5,26.5 C 524.106,33.2834 524.44,40.2834 524.5,47.5C 524.253,48.7133 523.586,49.38 522.5,49.5C 522.175,41.6484 522.508,33.9818 523.5,26.5 Z"/></g>
<g><path style="opacity:0.004" fill="#4f606e" d="M 417.5,37.5 C 418.005,40.8411 418.172,44.1745 418,47.5C 417.617,46.944 417.117,46.6107 416.5,46.5C 416.19,43.2869 416.523,40.2869 417.5,37.5 Z"/></g>
<g><path style="opacity:0.004" fill="#435666" d="M 502.5,45.5 C 503.833,46.1667 503.833,46.1667 502.5,45.5 Z"/></g>
<g><path style="opacity:1" fill="#767881" d="M 62.5,28.5 C 69.9267,28.546 75.5934,31.7127 79.5,38C 80.938,38.2189 82.2713,38.7189 83.5,39.5C 86.338,43.1718 88.6713,47.1718 90.5,51.5C 88.2351,52.6474 85.9018,52.8141 83.5,52C 79.9516,41.946 72.9516,36.1127 62.5,34.5C 62.5,32.5 62.5,30.5 62.5,28.5 Z"/></g>
<g><path style="opacity:0.012" fill="#42505f" d="M 364.5,46.5 C 365.833,47.1667 365.833,47.1667 364.5,46.5 Z"/></g>
<g><path style="opacity:0.007" fill="#44535b" d="M 545.5,48.5 C 548.001,48.5109 548.168,49.1776 546,50.5C 545.536,49.9056 545.369,49.2389 545.5,48.5 Z"/></g>
<g><path style="opacity:1" fill="#58e6ef" d="M 48.5,18.5 C 49.7368,26.4859 49.7368,34.4859 48.5,42.5C 41.5089,46.155 37.1755,51.8217 35.5,59.5C 28.5,59.5 21.5,59.5 14.5,59.5C 13.375,58.3478 13.375,57.3478 14.5,56.5C 20.9262,57.12 26.9262,56.4533 32.5,54.5C 35.3693,47.4604 40.2026,42.1271 47,38.5C 47.765,36.9343 47.5983,35.6009 46.5,34.5C 46.5,32.1667 46.5,29.8333 46.5,27.5C 46.5,25.1667 46.5,22.8333 46.5,20.5C 46.8333,19.5 47.5,18.8333 48.5,18.5 Z"/></g>
<g><path style="opacity:0.028" fill="#3f4b56" d="M 170.5,51.5 C 170.5,52.5 170.5,53.5 170.5,54.5C 169.883,54.6107 169.383,54.944 169,55.5C 168.333,49.8333 168.333,44.1667 169,38.5C 169.175,43.0195 169.675,47.3528 170.5,51.5 Z"/></g>
<g><path style="opacity:1" fill="#777a87" d="M 50.5,45.5 C 66.5339,44.365 73.3672,51.6983 71,67.5C 66.3533,78.2331 58.52,81.3997 47.5,77C 39.6558,70.7789 37.4891,62.9456 41,53.5C 43.772,50.2166 46.9386,47.5499 50.5,45.5 Z"/></g>
<g><path style="opacity:0.339" fill="#3f4a51" d="M 613.5,47.5 C 614.117,47.6107 614.617,47.944 615,48.5C 615.498,51.8168 615.665,55.1501 615.5,58.5C 615.167,58.5 614.833,58.5 614.5,58.5C 614.577,54.7852 614.244,51.1185 613.5,47.5 Z"/></g>
<g><path style="opacity:0.941" fill="#c8d5db" d="M 625.5,45.5 C 626.166,51.1568 626.499,56.9902 626.5,63C 626.496,69.207 625.829,75.0403 624.5,80.5C 625.478,68.9139 625.811,57.2473 625.5,45.5 Z"/></g>
<g><path style="opacity:0.446" fill="#b4bdc4" d="M 572.5,33.5 C 574.796,33.8041 575.129,34.8041 573.5,36.5C 573.5,37.1667 573.5,37.8333 573.5,38.5C 573.546,48.474 573.546,58.1406 573.5,67.5C 572.505,56.3456 572.172,45.0123 572.5,33.5 Z"/></g>
<g><path style="opacity:1" fill="#255768" d="M 32.5,54.5 C 26.9262,56.4533 20.9262,57.12 14.5,56.5C 20.3992,55.7951 26.3992,55.1284 32.5,54.5 Z"/></g>
<g><path style="opacity:0.027" fill="#3c4051" d="M 538.5,54.5 C 538.443,55.609 538.11,56.609 537.5,57.5C 536.285,56.221 536.618,55.221 538.5,54.5 Z"/></g>
<g><path style="opacity:0.498" fill="#b8bfc6" d="M 210.5,33.5 C 211.5,33.5 212.5,33.5 213.5,33.5C 213.064,43.6536 212.731,53.9869 212.5,64.5C 211.811,54.2653 211.145,43.932 210.5,33.5 Z"/></g>
<g><path style="opacity:1" fill="#478fdd" d="M 74.5,46.5 C 77.2067,49.2466 78.8734,52.5799 79.5,56.5C 86.3452,56.0421 93.0119,56.5421 99.5,58C 92,59.6286 84.3333,59.962 76.5,59C 75.2456,54.9909 73.5789,51.1575 71.5,47.5C 72.791,47.7373 73.791,47.404 74.5,46.5 Z"/></g>
<g><path style="opacity:1" fill="#5deaf1" d="M 12.5,59.5 C 12.5,59.8333 12.5,60.1667 12.5,60.5C 13.0838,63.285 12.0838,64.9517 9.5,65.5C 5.21048,60.7948 6.21048,58.7948 12.5,59.5 Z"/></g>
<g><path style="opacity:0.004" fill="#36434c" d="M 614.5,58.5 C 614.657,59.8734 614.49,61.2068 614,62.5C 613.235,60.9343 613.402,59.6009 614.5,58.5 Z"/></g>
<g><path style="opacity:0.255" fill="#d1d8db" d="M 124.5,29.5 C 124.5,29.1667 124.5,28.8333 124.5,28.5C 130.5,28.5 136.5,28.5 142.5,28.5C 141.906,45.5229 141.906,62.5229 142.5,79.5C 141.778,79.0825 141.278,78.4158 141,77.5C 140.228,61.4749 140.395,45.4749 141.5,29.5C 135.833,29.5 130.167,29.5 124.5,29.5 Z"/></g>
<g><path style="opacity:0.004" fill="#363c48" d="M 168.5,62.5 C 169.833,63.1667 169.833,63.1667 168.5,62.5 Z"/></g>
<g><path style="opacity:0.604" fill="#9099a0" d="M 332.5,49.5 C 332.677,54.6826 332.677,60.0159 332.5,65.5C 331.167,60.1667 331.167,54.8333 332.5,49.5 Z"/></g>
<g><path style="opacity:0.075" fill="#3e4559" d="M 482.5,59.5 C 483.746,62.2933 483.413,64.96 481.5,67.5C 481.194,64.6146 481.527,61.9479 482.5,59.5 Z"/></g>
<g><path style="opacity:1" fill="#4cd7f8" d="M 13.5,63.5 C 20.8333,63.5 28.1667,63.5 35.5,63.5C 35.5,65.5 35.5,67.5 35.5,69.5C 34.5,69.5 33.5,69.5 32.5,69.5C 32.6716,68.5084 32.3382,67.8417 31.5,67.5C 25.69,66.5104 19.69,66.1771 13.5,66.5C 13.5,65.5 13.5,64.5 13.5,63.5 Z"/></g>
<g><path style="opacity:1" fill="#4e91e0" d="M 102.5,65.5 C 101.222,65.2178 100.222,64.5511 99.5,63.5C 98.8933,59.0972 100.56,57.7639 104.5,59.5C 105.989,62.2108 105.322,64.2108 102.5,65.5 Z"/></g>
<g><path style="opacity:0.008" fill="#3c414f" d="M 525.5,63.5 C 525.833,63.5 526.167,63.5 526.5,63.5C 526.315,64.1701 525.981,64.1701 525.5,63.5 Z"/></g>
<g><path style="opacity:0.004" fill="#445161" d="M 545.5,64.5 C 545.897,63.475 546.563,63.3083 547.5,64C 546.906,64.4643 546.239,64.631 545.5,64.5 Z"/></g>
<g><path style="opacity:0.004" fill="#3d4954" d="M 614.5,65.5 C 613.475,65.1034 613.308,64.4368 614,63.5C 614.464,64.0944 614.631,64.7611 614.5,65.5 Z"/></g>
<g><path style="opacity:1" fill="#1b455c" d="M 12.5,60.5 C 13.404,61.209 13.7373,62.209 13.5,63.5C 13.5,64.5 13.5,65.5 13.5,66.5C 19.69,66.1771 25.69,66.5104 31.5,67.5C 24.7113,66.899 18.2113,67.5657 12,69.5C 11.7685,67.8426 10.9352,66.5093 9.5,65.5C 12.0838,64.9517 13.0838,63.285 12.5,60.5 Z"/></g>
<g><path style="opacity:1" fill="#142b3c" d="M 62.5,52.5 C 64.8764,53.7261 66.3764,55.7261 67,58.5C 68.2829,70.8837 62.7829,76.0504 50.5,74C 47.2716,72.4371 45.1049,69.9371 44,66.5C 41.3864,53.4502 46.5531,47.9502 59.5,50C 60.9423,50.3768 61.9423,51.2101 62.5,52.5 Z"/></g>
<g><path style="opacity:1" fill="#6c7a92" d="M 54.5,57.5 C 59.9885,57.504 61.8219,60.1707 60,65.5C 55.7934,68.7443 52.9601,67.9109 51.5,63C 51.6132,60.6013 52.6132,58.7679 54.5,57.5 Z"/></g>
<g><path style="opacity:1" fill="#60eaf0" d="M 60.5,52.5 C 58.1667,53.1667 55.8333,53.8333 53.5,54.5C 48.8022,56.5484 46.6355,60.215 47,65.5C 44.4822,59.7198 45.9822,55.2198 51.5,52C 54.6965,51.1955 57.6965,51.3622 60.5,52.5 Z"/></g>
<g><path style="opacity:1" fill="#3ab6d0" d="M 60.5,52.5 C 61.1667,52.5 61.8333,52.5 62.5,52.5C 65.4969,57.3331 64.8302,58.1665 60.5,55C 58.1902,54.5034 55.8568,54.3367 53.5,54.5C 55.8333,53.8333 58.1667,53.1667 60.5,52.5 Z"/></g>
<g><path style="opacity:0.004" fill="#404957" d="M 546.5,66.5 C 547.833,67.1667 547.833,67.1667 546.5,66.5 Z"/></g>
<g><path style="opacity:0.263" fill="#a9b0b8" d="M 384.5,64.5 C 389.664,67.9803 394.997,68.3137 400.5,65.5C 400.423,66.7498 399.756,67.5831 398.5,68C 395.167,68.6667 391.833,68.6667 388.5,68C 386.456,67.5017 385.122,66.335 384.5,64.5 Z"/></g>
<g><path style="opacity:0.129" fill="#8f97a2" d="M 444.5,59.5 C 444.5,62.1667 444.5,64.8333 444.5,67.5C 450.833,67.5 457.167,67.5 463.5,67.5C 457.021,68.4907 450.354,68.824 443.5,68.5C 443.19,65.2869 443.523,62.2869 444.5,59.5 Z"/></g>
<g><path style="opacity:0.286" fill="#5f676c" d="M 560.5,33.5 C 560.842,32.6618 561.508,32.3284 562.5,32.5C 562.5,46.8333 562.5,61.1667 562.5,75.5C 562.167,75.5 561.833,75.5 561.5,75.5C 561.829,61.3234 561.496,47.3234 560.5,33.5 Z"/></g>
<g><path style="opacity:0.553" fill="#666e76" d="M 490.5,60.5 C 490.5,65.1667 490.5,69.8333 490.5,74.5C 489.637,75.463 488.97,75.463 488.5,74.5C 489.788,71.9665 489.788,69.4665 488.5,67C 489.117,64.723 489.784,62.5563 490.5,60.5 Z"/></g>
<g><path style="opacity:0.929" fill="#7d8390" d="M 545.5,67.5 C 545.833,67.5 546.167,67.5 546.5,67.5C 547.789,68.6366 548.789,69.9699 549.5,71.5C 547.227,71.0432 545.894,69.7099 545.5,67.5 Z"/></g>
<g><path style="opacity:0.008" fill="#424a56" d="M 244.5,68.5 C 245.167,68.5 245.5,68.8333 245.5,69.5C 246.167,69.5 246.5,69.8333 246.5,70.5C 247.167,70.5 247.5,70.8333 247.5,71.5C 244.5,72.5 243.5,71.5 244.5,68.5 Z"/></g>
<g><path style="opacity:0.014" fill="#444f5b" d="M 550.5,71.5 C 550.56,70.9569 550.893,70.6236 551.5,70.5C 552.773,71.2565 552.773,71.9232 551.5,72.5C 551.5,71.8333 551.167,71.5 550.5,71.5 Z"/></g>
<g><path style="opacity:0.016" fill="#66707d" d="M 573.5,69.5 C 574.239,69.369 574.906,69.5357 575.5,70C 575.347,71.2087 575.014,72.3754 574.5,73.5C 573.566,72.4324 573.232,71.099 573.5,69.5 Z"/></g>
<g><path style="opacity:0.152" fill="#d2d5d7" d="M 583.5,48.5 C 584.494,58.6532 584.828,68.9865 584.5,79.5C 585.791,79.2627 586.791,79.596 587.5,80.5C 585.833,80.5 584.167,80.5 582.5,80.5C 582.263,69.8018 582.596,59.1351 583.5,48.5 Z"/></g>
<g><path style="opacity:0.027" fill="#3c3d4b" d="M 247.5,71.5 C 248.5,71.8333 249.167,72.5 249.5,73.5C 248.167,73.5 247.5,72.8333 247.5,71.5 Z"/></g>
<g><path style="opacity:0.671" fill="#7c7e8d" d="M 549.5,71.5 C 549.833,71.5 550.167,71.5 550.5,71.5C 551.167,71.5 551.5,71.8333 551.5,72.5C 552.11,73.391 552.443,74.391 552.5,75.5C 550.738,74.7377 549.738,73.4044 549.5,71.5 Z"/></g>
<g><path style="opacity:0.008" fill="#3a3f51" d="M 264.5,74.5 C 264.5,74.1667 264.5,73.8333 264.5,73.5C 265.077,72.2267 265.743,72.2267 266.5,73.5C 266.043,74.2975 265.376,74.6309 264.5,74.5 Z"/></g>
<g><path style="opacity:0.167" fill="#515f6f" d="M 363.5,67.5 C 363.451,70.3743 363.784,73.2077 364.5,76C 364.475,77.876 363.809,79.376 362.5,80.5C 362.182,75.9677 362.515,71.6344 363.5,67.5 Z"/></g>
<g><path style="opacity:0.118" fill="#818485" d="M 302.5,76.5 C 301.833,76.1667 301.167,75.8333 300.5,75.5C 300.369,74.6236 300.702,73.9569 301.5,73.5C 302.386,74.325 302.719,75.325 302.5,76.5 Z"/></g>
<g><path style="opacity:0.008" fill="#414656" d="M 554.5,76.5 C 553.833,76.5 553.5,76.1667 553.5,75.5C 553.56,74.9569 553.893,74.6236 554.5,74.5C 555.773,75.2565 555.773,75.9232 554.5,76.5 Z"/></g>
<g><path style="opacity:1" fill="#10222f" d="M 46.5,20.5 C 46.5,22.8333 46.5,25.1667 46.5,27.5C 34.9408,32.0577 26.6074,40.0577 21.5,51.5C 23.7649,52.6474 26.0982,52.8141 28.5,52C 31.7526,43.2461 37.7526,37.4128 46.5,34.5C 47.5983,35.6009 47.765,36.9343 47,38.5C 40.2026,42.1271 35.3693,47.4604 32.5,54.5C 26.3992,55.1284 20.3992,55.7951 14.5,56.5C 13.375,57.3478 13.375,58.3478 14.5,59.5C 13.8333,59.5 13.1667,59.5 12.5,59.5C 6.21048,58.7948 5.21048,60.7948 9.5,65.5C 10.9352,66.5093 11.7685,67.8426 12,69.5C 18.2113,67.5657 24.7113,66.899 31.5,67.5C 32.3382,67.8417 32.6716,68.5084 32.5,69.5C 35.5874,79.9143 42.5874,85.581 53.5,86.5C 53.7751,93.0465 53.4418,99.5465 52.5,106C 55.4678,110.703 57.4678,110.203 58.5,104.5C 58.3337,97.825 58.5004,91.1583 59,84.5C 59.6667,83.8333 60.3333,83.1667 61,82.5C 61.1712,90.0115 61.6712,97.3448 62.5,104.5C 62.6887,112.251 59.022,114.918 51.5,112.5C 49.4377,110.597 48.1044,108.263 47.5,105.5C 29.3662,100.367 18.0329,88.7005 13.5,70.5C 4.08213,69.9325 0.915468,65.2658 4,56.5C 6.94108,54.0295 10.2744,52.3628 14,51.5C 19.7893,35.8774 30.6226,25.544 46.5,20.5 Z"/></g>
<g><path style="opacity:0.012" fill="#414a56" d="M 333.5,71.5 C 334.622,73.2884 334.789,75.2884 334,77.5C 333.505,75.5273 333.338,73.5273 333.5,71.5 Z"/></g>
<g><path style="opacity:0.008" fill="#414d60" d="M 476.5,75.5 C 477.525,75.8966 477.692,76.5632 477,77.5C 476.536,76.9056 476.369,76.2389 476.5,75.5 Z"/></g>
<g><path style="opacity:0.004" fill="#3d474f" d="M 561.5,75.5 C 560.833,76.1667 560.833,76.1667 561.5,75.5 Z"/></g>
<g><path style="opacity:0.007" fill="#434f5d" d="M 556.5,78.5 C 556.639,76.663 557.306,76.3296 558.5,77.5C 558.043,78.2975 557.376,78.6309 556.5,78.5 Z"/></g>
<g><path style="opacity:0.008" fill="#404958" d="M 574.5,75.5 C 575.833,76.5 575.833,77.5 574.5,78.5C 573.375,77.3478 573.375,76.3478 574.5,75.5 Z"/></g>
<g><path style="opacity:0.063" fill="#344255" d="M 233.5,70.5 C 234.833,73.8333 234.833,77.1667 233.5,80.5C 233.28,77.3776 233.28,74.0442 233.5,70.5 Z"/></g>
<g><path style="opacity:0.004" fill="#33373f" d="M 382.5,77.5 C 381.833,78.1667 381.833,78.1667 382.5,77.5 Z"/></g>
<g><path style="opacity:1" fill="#3a73ca" d="M 99.5,63.5 C 100.222,64.5511 101.222,65.2178 102.5,65.5C 95.0182,66.492 87.3516,66.8254 79.5,66.5C 78.1153,74.5932 73.782,80.5932 66.5,84.5C 65.5481,86.0453 65.2148,87.712 65.5,89.5C 65.5,94.1667 65.5,98.8333 65.5,103.5C 64.5,103.5 63.5,103.5 62.5,103.5C 62.3337,96.4921 62.5004,89.4921 63,82.5C 71.177,78.8144 75.3437,72.481 75.5,63.5C 83.5,63.5 91.5,63.5 99.5,63.5 Z"/></g>
<g><path style="opacity:1" fill="#646973" d="M 66.5,96.5 C 66.5,94.1667 66.5,91.8333 66.5,89.5C 75.0365,86.2995 80.3698,80.2995 82.5,71.5C 84.8333,71.5 87.1667,71.5 89.5,71.5C 88.6846,75.4462 87.1846,79.1129 85,82.5C 81.1667,86.3333 77.3333,90.1667 73.5,94C 71.3496,95.4114 69.0163,96.2447 66.5,96.5 Z"/></g>
<g><path style="opacity:0.004" fill="#4d5363" d="M 151.5,77.5 C 151.833,77.5 152.167,77.5 152.5,77.5C 154.011,79.8375 153.677,80.5042 151.5,79.5C 151.5,78.8333 151.5,78.1667 151.5,77.5 Z"/></g>
<g><path style="opacity:0.094" fill="#434a53" d="M 199.5,78.5 C 198.994,80.1054 198.327,80.4387 197.5,79.5C 197.842,78.6618 198.508,78.3284 199.5,78.5 Z"/></g>
<g><path style="opacity:0.008" fill="#333e49" d="M 384.5,78.5 C 383.833,79.1667 383.833,79.1667 384.5,78.5 Z"/></g>
<g><path style="opacity:0.082" fill="#666f78" d="M 384.5,78.5 C 384.5,78.1667 384.5,77.8333 384.5,77.5C 388.434,78.3597 392.434,78.693 396.5,78.5C 392.419,80.3316 388.419,80.3316 384.5,78.5 Z"/></g>
<g><path style="opacity:0.027" fill="#3e4a58" d="M 416.5,85.5 C 416.5,82.8333 416.5,80.1667 416.5,77.5C 417.309,75.7078 417.809,73.7078 418,71.5C 418.167,73.5 418.333,75.5 418.5,77.5C 418.713,80.5267 418.047,83.1934 416.5,85.5 Z"/></g>
<g><path style="opacity:0.098" fill="#4e535d" d="M 472.5,77.5 C 470.819,79.0075 468.819,80.0075 466.5,80.5C 466.5,80.1667 466.5,79.8333 466.5,79.5C 468.297,78.2702 470.297,77.6036 472.5,77.5 Z"/></g>
<g><path style="opacity:1" fill="#656873" d="M 20.5,70.5 C 23.1667,70.5 25.8333,70.5 28.5,70.5C 31.4737,80.807 38.1403,87.4737 48.5,90.5C 48.5,92.8333 48.5,95.1667 48.5,97.5C 33.9564,93.9573 24.6231,84.9573 20.5,70.5 Z"/></g>
<g><path style="opacity:0.088" fill="#878c91" d="M 201.5,76.5 C 201.56,75.9569 201.893,75.6236 202.5,75.5C 203.429,76.6888 203.762,78.0222 203.5,79.5C 205.886,79.7413 207.886,79.0746 209.5,77.5C 209.5,78.5 209.5,79.5 209.5,80.5C 207.167,80.5 204.833,80.5 202.5,80.5C 202.768,78.901 202.434,77.5676 201.5,76.5 Z"/></g>
<g><path style="opacity:0.555" fill="#606b77" d="M 323.5,80.5 C 326.287,79.5233 329.287,79.19 332.5,79.5C 331.268,80.3705 328.268,80.7038 323.5,80.5 Z"/></g>
<g><path style="opacity:0.208" fill="#9ea9b4" d="M 554.5,77.5 C 555.167,77.8333 555.833,78.1667 556.5,78.5C 555.082,80.3079 553.082,80.9746 550.5,80.5C 552.219,79.9779 553.552,78.9779 554.5,77.5 Z"/></g>
<g><path style="opacity:0.004" fill="#3e535c" d="M 614.5,79.5 C 613.833,80.1667 613.833,80.1667 614.5,79.5 Z"/></g>
<g><path style="opacity:0.004" fill="#40474d" d="M 465.5,80.5 C 465.833,80.5 466.167,80.5 466.5,80.5C 466.315,81.1701 465.981,81.1701 465.5,80.5 Z"/></g>
<g><path style="opacity:0.024" fill="#404a53" d="M 255.5,80.5 C 256.5,80.5 257.5,80.5 258.5,80.5C 257.26,82.9845 256.26,82.9845 255.5,80.5 Z"/></g>
<g><path style="opacity:1" fill="#397acf" d="M 32.5,69.5 C 33.5,69.5 34.5,69.5 35.5,69.5C 38.8482,77.5087 44.8482,82.1753 53.5,83.5C 53.5,84.5 53.5,85.5 53.5,86.5C 42.5874,85.581 35.5874,79.9143 32.5,69.5 Z"/></g>
<g><path style="opacity:0.331" fill="#b7bfbc" d="M 384.5,86.5 C 389.5,87.8333 394.5,87.8333 399.5,86.5C 399.389,87.1174 399.056,87.6174 398.5,88C 394.167,88.6667 389.833,88.6667 385.5,88C 384.944,87.6174 384.611,87.1174 384.5,86.5 Z"/></g>
<g><path style="opacity:0.012" fill="#40454f" d="M 416.5,85.5 C 416.715,87.1788 416.048,88.1788 414.5,88.5C 414.932,87.2905 415.599,86.2905 416.5,85.5 Z"/></g>
<g><path style="opacity:0.982" fill="#d9e0e6" d="M 185.5,95.5 C 185.427,97.0269 186.094,98.0269 187.5,98.5C 189.557,103.002 191.224,107.669 192.5,112.5C 190.604,113.466 188.604,113.799 186.5,113.5C 185.978,108.742 183.478,107.408 179,109.5C 178.51,110.793 178.343,112.127 178.5,113.5C 173.157,113.484 171.991,111.15 175,106.5C 177.039,102.255 179.206,98.088 181.5,94C 181.167,93.6667 180.833,93.3333 180.5,93C 183.262,91.9231 184.928,92.7564 185.5,95.5 Z M 182.5,100.5 C 185.717,103.884 185.05,105.051 180.5,104C 181.973,103.29 182.64,102.124 182.5,100.5 Z"/></g>
<g><path style="opacity:0.008" fill="#384048" d="M 410.5,92.5 C 411.833,93.1667 411.833,93.1667 410.5,92.5 Z"/></g>
<g><path style="opacity:0.004" fill="#303c46" d="M 489.5,92.5 C 490.833,93.1667 490.833,93.1667 489.5,92.5 Z"/></g>
<g><path style="opacity:1" fill="#4171cb" d="M 81.5,90.5 C 82.8333,90.5 84.1667,90.5 85.5,90.5C 85.9899,92.9484 85.1566,94.615 83,95.5C 80.3894,94.5001 79.8894,92.8334 81.5,90.5 Z"/></g>
<g><path style="opacity:0.963" fill="#ecf0f3" d="M 223.5,98.5 C 222.514,102.97 222.181,107.637 222.5,112.5C 221.432,113.434 220.099,113.768 218.5,113.5C 218.223,108.767 218.557,104.1 219.5,99.5C 217.604,98.5344 215.604,98.2011 213.5,98.5C 213.5,96.5 213.5,94.5 213.5,92.5C 218.453,93.3292 223.453,93.6625 228.5,93.5C 228.421,94.9305 228.754,96.2638 229.5,97.5C 227.604,98.4656 225.604,98.7989 223.5,98.5 Z"/></g>
<g><path style="opacity:0.445" fill="#97afbe" d="M 297.5,92.5 C 300.655,92.9896 303.655,93.6562 306.5,94.5C 302.988,95.0545 299.988,94.3878 297.5,92.5 Z"/></g>
<g><path style="opacity:0.991" fill="#e3e8ed" d="M 428.5,92.5 C 430.39,92.2965 431.89,92.9632 433,94.5C 435.449,99.7299 437.616,105.063 439.5,110.5C 439.167,112.167 438.167,113.167 436.5,113.5C 434.614,112.07 432.947,110.403 431.5,108.5C 429.929,109.309 428.262,109.643 426.5,109.5C 426.5,110.5 426.5,111.5 426.5,112.5C 424.708,112.366 423.042,112.699 421.5,113.5C 421.5,111.5 421.5,109.5 421.5,107.5C 422.537,106.07 423.204,104.403 423.5,102.5C 425.659,99.5159 427.325,96.1826 428.5,92.5 Z"/></g>
<g><path style="opacity:0.971" fill="#dde1e5" d="M 473.5,92.5 C 474.301,94.0418 474.634,95.7085 474.5,97.5C 472.265,97.2053 470.265,97.5386 468.5,98.5C 467.325,98.281 466.325,98.6143 465.5,99.5C 476.05,102.23 476.05,104.563 465.5,106.5C 465.5,107.5 465.5,108.5 465.5,109.5C 464.764,111.229 463.43,112.229 461.5,112.5C 460.509,106.021 460.176,99.3543 460.5,92.5C 464.833,92.5 469.167,92.5 473.5,92.5 Z"/></g>
<g><path style="opacity:0.983" fill="#e0e6eb" d="M 483.5,92.5 C 493.09,94.0127 496.257,99.346 493,108.5C 484.762,116.316 479.595,114.649 477.5,103.5C 477.442,100.953 478.109,98.6201 479.5,96.5C 481.188,95.4787 482.521,94.1454 483.5,92.5 Z M 488.5,99.5 C 488.768,102.119 488.435,104.619 487.5,107C 483.68,107.342 482.014,105.509 482.5,101.5C 483.99,99.7202 485.99,99.0535 488.5,99.5 Z"/></g>
<g><path style="opacity:0.989" fill="#dbe7ed" d="M 543.5,92.5 C 544.978,92.238 546.311,92.5713 547.5,93.5C 548.616,95.8378 549.95,98.0045 551.5,100C 551.167,100.333 550.833,100.667 550.5,101C 553.42,104.671 554.754,108.837 554.5,113.5C 552.549,113.773 551.049,113.107 550,111.5C 549.667,111.833 549.333,112.167 549,112.5C 547.872,108.539 545.372,107.539 541.5,109.5C 540.167,110.5 540.167,111.5 541.5,112.5C 539.955,113.452 538.288,113.785 536.5,113.5C 536.337,111.143 536.503,108.81 537,106.5C 539.452,101.932 541.618,97.265 543.5,92.5 Z M 545.5,101.5 C 545.289,103.424 544.623,103.757 543.5,102.5C 544.167,102.167 544.833,101.833 545.5,101.5 Z"/></g>
<g><path style="opacity:0.941" fill="#eaf0f3" d="M 169.5,92.5 C 170.5,92.5 171.5,92.5 172.5,92.5C 172.739,94.4672 172.406,96.3005 171.5,98C 168.774,98.1816 166.107,98.6816 163.5,99.5C 165.423,100.308 167.423,100.808 169.5,101C 170.944,106.345 168.944,107.845 163.5,105.5C 162.223,108.034 162.223,110.534 163.5,113C 161.866,113.494 160.199,113.66 158.5,113.5C 158.454,106.809 158.788,100.143 159.5,93.5C 163.042,93.8128 166.375,93.4794 169.5,92.5 Z"/></g>
<g><path style="opacity:0.38" fill="#58646b" d="M 267.5,93.5 C 268.306,94.9972 268.972,96.6639 269.5,98.5C 269.03,99.463 268.363,99.463 267.5,98.5C 267.5,96.8333 267.5,95.1667 267.5,93.5 Z"/></g>
<g><path style="opacity:0.977" fill="#e0e4ea" d="M 288.5,108.5 C 286.5,108.5 285.5,109.5 285.5,111.5C 283.634,112.014 281.8,112.68 280,113.5C 277.498,111.817 274.998,110.151 272.5,108.5C 272.737,107.209 272.404,106.209 271.5,105.5C 270.971,98.5217 274.138,94.1884 281,92.5C 289.196,95.2767 291.696,100.61 288.5,108.5 Z M 280.5,98.5 C 284.146,99.4615 285.313,101.795 284,105.5C 278.481,108.666 276.148,106.999 277,100.5C 278.302,99.9152 279.469,99.2485 280.5,98.5 Z"/></g>
<g><path style="opacity:0.975" fill="#e1e9ed" d="M 331.5,112.5 C 330.167,112.5 328.833,112.5 327.5,112.5C 326.833,112.167 326.167,111.833 325.5,111.5C 324.399,110.152 323.399,108.652 322.5,107C 321.563,106.308 320.897,106.475 320.5,107.5C 319.842,109.639 318.842,111.639 317.5,113.5C 316.18,110.572 315.514,107.239 315.5,103.5C 315.667,100.167 315.833,96.8333 316,93.5C 316.853,91.8753 317.853,91.5419 319,92.5C 320.092,95.0444 320.759,97.7111 321,100.5C 322.643,98.0232 324.476,95.6898 326.5,93.5C 328.071,92.6906 329.738,92.3573 331.5,92.5C 331.323,96.5257 329.323,99.359 325.5,101C 327.503,104.494 329.503,108.327 331.5,112.5 Z"/></g>
<g><path style="opacity:0.998" fill="#dee4e9" d="M 357.5,95.5 C 358.167,96.1667 358.833,96.8333 359.5,97.5C 358.833,97.5 358.5,97.8333 358.5,98.5C 358.427,100.027 359.094,101.027 360.5,101.5C 362.507,100.321 362.84,100.821 361.5,103C 362.986,105.289 363.986,107.789 364.5,110.5C 361.911,114.705 360.244,114.371 359.5,109.5C 356.833,109.5 354.167,109.5 351.5,109.5C 350.463,114.663 348.797,114.829 346.5,110C 348.283,104.102 350.616,98.4356 353.5,93C 354.167,92.3333 354.833,92.3333 355.5,93C 356.066,93.9947 356.733,94.828 357.5,95.5 Z"/></g>
<g><path style="opacity:0.004" fill="#404356" d="M 357.5,94.5 C 358.833,95.1667 358.833,95.1667 357.5,94.5 Z"/></g>
<g><path style="opacity:0.973" fill="#e5ecf0" d="M 456.5,102.5 C 456.5,103.5 456.5,104.5 456.5,105.5C 453.833,105.5 451.167,105.5 448.5,105.5C 448.5,107.833 448.5,110.167 448.5,112.5C 447.167,112.5 445.833,112.5 444.5,112.5C 444.5,105.833 444.5,99.1667 444.5,92.5C 448.668,92.8331 453.001,92.8331 457.5,92.5C 457.739,94.4672 457.406,96.3005 456.5,98C 453.447,98.1786 450.447,98.6786 447.5,99.5C 450.745,100.043 453.745,101.043 456.5,102.5 Z"/></g>
<g><path style="opacity:0.962" fill="#e5eaef" d="M 531.5,109.5 C 529.847,109.66 528.514,110.326 527.5,111.5C 524.272,112.414 520.939,112.747 517.5,112.5C 517.81,105.801 518.477,99.1348 519.5,92.5C 523.19,93.1945 526.857,94.0278 530.5,95C 535.213,99.7032 535.546,104.537 531.5,109.5 Z M 523.5,98.5 C 529.305,99.2761 530.639,102.109 527.5,107C 525.833,107.667 524.167,107.667 522.5,107C 523.444,104.281 523.777,101.448 523.5,98.5 Z"/></g>
<g><path style="opacity:1" fill="#dfe3e8" d="M 578.5,92.5 C 580.288,92.2148 581.955,92.5481 583.5,93.5C 582.221,98.1471 582.221,102.814 583.5,107.5C 585.409,106.652 587.409,106.318 589.5,106.5C 589.756,108.792 589.423,110.959 588.5,113C 584.891,112.762 581.225,112.595 577.5,112.5C 576.842,106.334 576.508,100.334 576.5,94.5C 577.243,93.8182 577.909,93.1515 578.5,92.5 Z"/></g>
<g><path style="opacity:0.966" fill="#dee5eb" d="M 596.5,92.5 C 600.447,93.3927 604.447,93.5594 608.5,93C 607.833,94.6667 607.167,96.3333 606.5,98C 598.137,98.7488 597.803,99.7488 605.5,101C 606.337,102.011 606.67,103.178 606.5,104.5C 596.109,106.538 596.109,107.538 606.5,107.5C 606.662,109.527 606.495,111.527 606,113.5C 602.532,112.197 599.032,112.197 595.5,113.5C 593.933,106.248 594.266,99.2484 596.5,92.5 Z"/></g>
<g><path style="opacity:1" fill="#3b77da" d="M 53.5,83.5 C 54.8333,83.5 56.1667,83.5 57.5,83.5C 57.1755,90.6866 57.5088,97.6866 58.5,104.5C 57.4678,110.203 55.4678,110.703 52.5,106C 53.4418,99.5465 53.7751,93.0465 53.5,86.5C 53.5,85.5 53.5,84.5 53.5,83.5 Z"/></g>
<g><path style="opacity:0.02" fill="#42606e" d="M 428.5,92.5 C 427.325,96.1826 425.659,99.5159 423.5,102.5C 422.66,100.386 423.327,98.5531 425.5,97C 425.209,95.0421 426.209,93.5421 428.5,92.5 Z"/></g>
<g><path style="opacity:0.622" fill="#6f7e83" d="M 391.5,98.5 C 389.547,97.5381 387.714,97.2047 386,97.5C 385.505,99.4727 385.338,101.473 385.5,103.5C 384.532,101.393 384.198,99.0593 384.5,96.5C 386.527,96.3379 388.527,96.5045 390.5,97C 391.056,97.3826 391.389,97.8826 391.5,98.5 Z"/></g>
<g><path style="opacity:0.004" fill="#2f3e44" d="M 157.5,97.5 C 158.833,98.1667 158.833,98.1667 157.5,97.5 Z"/></g>
<g><path style="opacity:0.055" fill="#5d6374" d="M 185.5,95.5 C 186.906,95.9731 187.573,96.9731 187.5,98.5C 186.094,98.0269 185.427,97.0269 185.5,95.5 Z"/></g>
<g><path style="opacity:0.871" fill="#666c77" d="M 473.5,92.5 C 475.308,93.9179 475.975,95.9179 475.5,98.5C 472.959,98.8499 470.626,98.8499 468.5,98.5C 470.265,97.5386 472.265,97.2053 474.5,97.5C 474.634,95.7085 474.301,94.0418 473.5,92.5 Z"/></g>
<g><path style="opacity:0.999" fill="#e0e6ed" d="M 571.5,101.5 C 570.957,101.56 570.624,101.893 570.5,102.5C 571.325,103.386 572.325,103.719 573.5,103.5C 574.384,107.49 573.051,110.323 569.5,112C 565.781,113.753 562.114,113.753 558.5,112C 558.27,105.945 558.27,99.7786 558.5,93.5C 562.165,92.4278 565.831,92.5945 569.5,94C 572.17,96.1828 572.837,98.6828 571.5,101.5 Z M 562.5,105.5 C 563.833,105.5 565.167,105.5 566.5,105.5C 566.5,106.5 566.5,107.5 566.5,108.5C 565.167,108.5 563.833,108.5 562.5,108.5C 562.5,107.5 562.5,106.5 562.5,105.5 Z"/></g>
<g><path style="opacity:0.155" fill="#6a7b89" d="M 380.5,95.5 C 381.797,97.6934 381.797,100.027 380.5,102.5C 379.478,102.145 378.811,101.478 378.5,100.5C 379.931,99.2196 380.598,97.5529 380.5,95.5 Z"/></g>
<g><path style="opacity:0.067" fill="#5f6e85" d="M 488.5,99.5 C 485.99,99.0535 483.99,99.7202 482.5,101.5C 481.226,100.811 481.226,99.9772 482.5,99C 484.712,98.2109 486.712,98.3775 488.5,99.5 Z"/></g>
<g><path style="opacity:0.991" fill="#e1eaef" d="M 513.5,101.5 C 512.549,103.118 511.216,104.451 509.5,105.5C 509.624,106.107 509.957,106.44 510.5,106.5C 512.166,108.187 513.5,110.187 514.5,112.5C 512.926,113.631 511.259,113.798 509.5,113C 507.47,111.104 505.803,108.937 504.5,106.5C 503.548,108.045 503.215,109.712 503.5,111.5C 502.039,112.686 500.705,112.686 499.5,111.5C 499.5,105.167 499.5,98.8333 499.5,92.5C 504.715,91.7024 509.215,93.0358 513,96.5C 513.494,98.1341 513.66,99.8008 513.5,101.5 Z M 503.5,98.5 C 509.831,100.451 509.831,101.451 503.5,101.5C 503.5,100.5 503.5,99.5 503.5,98.5 Z"/></g>
<g><path style="opacity:1" fill="#284777" d="M 65.5,89.5 C 65.8333,89.5 66.1667,89.5 66.5,89.5C 66.5,91.8333 66.5,94.1667 66.5,96.5C 66.5,99.1667 66.5,101.833 66.5,104.5C 65.1667,104.5 63.8333,104.5 62.5,104.5C 62.5,104.167 62.5,103.833 62.5,103.5C 63.5,103.5 64.5,103.5 65.5,103.5C 65.5,98.8333 65.5,94.1667 65.5,89.5 Z"/></g>
<g><path style="opacity:0.988" fill="#dde4e9" d="M 267.5,93.5 C 267.5,95.1667 267.5,96.8333 267.5,98.5C 266.442,102.844 265.275,107.178 264,111.5C 262,114.167 260,114.167 258,111.5C 257.667,111.833 257.333,112.167 257,112.5C 257.234,109.599 256.901,106.599 256,103.5C 254.53,106.708 253.363,110.041 252.5,113.5C 250.418,113.528 248.584,112.861 247,111.5C 245.017,105.907 243.684,100.241 243,94.5C 244.356,93.6198 245.856,93.2865 247.5,93.5C 249.312,106.41 251.312,106.076 253.5,92.5C 254.833,92.5 256.167,92.5 257.5,92.5C 257.677,96.6982 258.677,100.698 260.5,104.5C 261.5,101.167 262.5,97.8337 263.5,94.5C 264.728,92.8241 266.061,92.4908 267.5,93.5 Z"/></g>
<g><path style="opacity:0.294" fill="#868a9a" d="M 359.5,97.5 C 360.434,98.5676 360.768,99.901 360.5,101.5C 359.094,101.027 358.427,100.027 358.5,98.5C 359.167,98.5 359.5,98.1667 359.5,97.5 Z"/></g>
<g><path style="opacity:0.706" fill="#445787" d="M 545.5,101.5 C 544.833,101.833 544.167,102.167 543.5,102.5C 543.711,100.576 544.377,100.243 545.5,101.5 Z"/></g>
<g><path style="opacity:0.997" fill="#d3dae0" d="M 202.5,91.5 C 205.293,92.4593 207.293,94.2926 208.5,97C 208.333,98.5 207.5,99.3333 206,99.5C 204.211,98.5909 202.377,98.4242 200.5,99C 203.859,100.383 207.193,101.716 210.5,103C 211.369,108.727 208.869,112.227 203,113.5C 199.786,113.145 197.286,111.645 195.5,109C 195.734,107.268 196.734,106.434 198.5,106.5C 200.274,106.887 201.941,107.553 203.5,108.5C 203.833,108.167 204.167,107.833 204.5,107.5C 202.543,105.515 200.21,104.015 197.5,103C 195.604,101.192 195.104,99.025 196,96.5C 197.965,94.4497 200.132,92.783 202.5,91.5 Z"/></g>
<g><path style="opacity:0.983" fill="#dbe7ee" d="M 297.5,92.5 C 299.988,94.3878 302.988,95.0545 306.5,94.5C 310.332,96.2342 311.498,99.2342 310,103.5C 308.745,104.211 307.579,105.044 306.5,106C 307.044,106.717 307.711,107.217 308.5,107.5C 311.569,112.931 310.235,114.431 304.5,112C 303.181,109.715 301.681,107.548 300,105.5C 300.057,108.972 299.057,111.972 297,114.5C 296.333,113.833 295.667,113.167 295,112.5C 294.993,107.284 294.827,102.118 294.5,97C 294.698,94.8155 295.698,93.3155 297.5,92.5 Z M 299.5,98.5 C 305.969,99.948 305.969,100.948 299.5,101.5C 299.5,100.5 299.5,99.5 299.5,98.5 Z"/></g>
<g><path style="opacity:0.004" fill="#0e203d" d="M 456.5,101.5 C 457.833,102.167 457.833,102.167 456.5,101.5 Z"/></g>
<g><path style="opacity:0.129" fill="#8fa8ae" d="M 400.5,99.5 C 401.725,100.152 402.392,101.319 402.5,103C 402.392,104.681 401.725,105.848 400.5,106.5C 401.833,104.167 401.833,101.833 400.5,99.5 Z"/></g>
<g><path style="opacity:0.024" fill="#47526e" d="M 571.5,101.5 C 572.167,102.167 572.833,102.833 573.5,103.5C 572.325,103.719 571.325,103.386 570.5,102.5C 570.624,101.893 570.957,101.56 571.5,101.5 Z"/></g>
<g><path style="opacity:0.651" fill="#8ba2ce" d="M 545.5,101.5 C 546.404,102.209 546.737,103.209 546.5,104.5C 544.801,104.66 543.134,104.494 541.5,104C 542.044,103.283 542.711,102.783 543.5,102.5C 544.623,103.757 545.289,103.424 545.5,101.5 Z"/></g>
<g><path style="opacity:1" fill="#839aa9" d="M 355.5,101.5 C 355.062,101.435 354.728,101.601 354.5,102C 358.723,104.244 358.389,105.41 353.5,105.5C 353.215,103.712 353.548,102.045 354.5,100.5C 355.107,100.624 355.44,100.957 355.5,101.5 Z"/></g>
<g><path style="opacity:0.122" fill="#42586c" d="M 423.5,102.5 C 423.204,104.403 422.537,106.07 421.5,107.5C 421.12,105.302 421.787,103.635 423.5,102.5 Z"/></g>
<g><path style="opacity:0.008" fill="#7093a7" d="M 513.5,101.5 C 513.69,103.959 512.69,105.626 510.5,106.5C 509.957,106.44 509.624,106.107 509.5,105.5C 511.216,104.451 512.549,103.118 513.5,101.5 Z"/></g>
<g><path style="opacity:0.8" fill="#7a8590" d="M 223.5,98.5 C 224.263,99.2679 225.263,99.7679 226.5,100C 225.552,100.483 224.552,100.649 223.5,100.5C 223.817,104.702 223.483,108.702 222.5,112.5C 222.181,107.637 222.514,102.97 223.5,98.5 Z"/></g>
<g><path style="opacity:0.005" fill="#485a64" d="M 271.5,105.5 C 272.404,106.209 272.737,107.209 272.5,108.5C 271.703,109.478 271.036,109.145 270.5,107.5C 270.863,106.817 271.196,106.15 271.5,105.5 Z"/></g>
<g><path style="opacity:0.016" fill="#1f4877" d="M 308.5,107.5 C 308.369,106.761 308.536,106.094 309,105.5C 309.692,106.437 309.525,107.103 308.5,107.5 Z"/></g>
<g><path style="opacity:0.937" fill="#abaeb8" d="M 398.5,99.5 C 397.252,100.334 396.585,101.667 396.5,103.5C 396.833,104.833 397.167,106.167 397.5,107.5C 398.417,106.873 399.417,106.539 400.5,106.5C 399.365,108.213 397.698,108.88 395.5,108.5C 395.5,105.167 395.5,101.833 395.5,98.5C 396.791,98.2627 397.791,98.596 398.5,99.5 Z"/></g>
<g><path style="opacity:0.016" fill="#4e5c6a" d="M 407.5,105.5 C 407.34,107.153 406.674,108.486 405.5,109.5C 405.5,108.833 405.167,108.5 404.5,108.5C 405.167,107.167 406.167,106.167 407.5,105.5 Z"/></g>
<g><path style="opacity:0.059" fill="#354452" d="M 288.5,108.5 C 288.19,110.144 287.19,111.144 285.5,111.5C 285.5,109.5 286.5,108.5 288.5,108.5 Z"/></g>
<g><path style="opacity:0.004" fill="#3e4a59" d="M 404.5,109.5 C 404.833,109.5 405.167,109.5 405.5,109.5C 405.315,110.17 404.981,110.17 404.5,109.5 Z"/></g>
<g><path style="opacity:0.012" fill="#374d6b" d="M 167.5,110.5 C 168.675,110.281 169.675,110.614 170.5,111.5C 168.948,112.798 167.948,112.465 167.5,110.5 Z"/></g>
<g><path style="opacity:0.047" fill="#445265" d="M 531.5,109.5 C 530.655,111.762 529.322,112.429 527.5,111.5C 528.514,110.326 529.847,109.66 531.5,109.5 Z"/></g>
<g><path style="opacity:0.498" fill="#8398a3" d="M 320.5,107.5 C 320.799,109.604 320.466,111.604 319.5,113.5C 318.571,114.55 317.905,114.55 317.5,113.5C 318.842,111.639 319.842,109.639 320.5,107.5 Z"/></g>
<g><path style="opacity:0.835" fill="#5b6e7f" d="M 421.5,107.5 C 421.5,109.5 421.5,111.5 421.5,113.5C 420.503,113.53 419.836,113.03 419.5,112C 419.899,110.272 420.566,108.772 421.5,107.5 Z"/></g>
<g><path style="opacity:0.02" fill="#394d5c" d="M 465.5,109.5 C 465.663,113.035 464.33,114.035 461.5,112.5C 463.43,112.229 464.764,111.229 465.5,109.5 Z"/></g>
<g><path style="opacity:0.008" fill="#475f78" d="M 325.5,111.5 C 326.167,111.833 326.833,112.167 327.5,112.5C 325.563,114.326 323.563,114.493 321.5,113C 323.058,112.79 324.391,112.29 325.5,111.5 Z"/></g>
<g><path style="opacity:0.004" fill="#3a526a" d="M 331.5,112.5 C 332.833,113.167 332.833,113.167 331.5,112.5 Z"/></g>
<g><path style="opacity:0.082" fill="#3e4854" d="M 395.5,112.5 C 394.5,113.833 393.5,113.833 392.5,112.5C 393.652,111.375 394.652,111.375 395.5,112.5 Z"/></g>
<g><path style="opacity:0.006" fill="#495e7c" d="M 476.5,112.5 C 479.001,112.511 479.168,113.178 477,114.5C 476.536,113.906 476.369,113.239 476.5,112.5 Z"/></g>
<g><path style="opacity:0.263" fill="#657b87" d="M 499.5,111.5 C 500.705,112.686 502.039,112.686 503.5,111.5C 502.628,115.089 500.961,115.423 498.5,112.5C 498.624,111.893 498.957,111.56 499.5,111.5 Z"/></g>
<g><path style="opacity:0.007" fill="#435668" d="M 171.5,113.5 C 172.773,114.077 172.773,114.743 171.5,115.5C 170.537,115.03 170.537,114.363 171.5,113.5 Z"/></g>
<g><path style="opacity:0.631" fill="#dbdee2" d="M 11.5,115.5 C 12.6009,114.402 13.9343,114.235 15.5,115C 14.2068,115.49 12.8734,115.657 11.5,115.5 Z"/></g>
<g><path style="opacity:0.973" fill="#ccd1d5" d="M 94.5,113.5 C 96.288,113.215 97.9547,113.548 99.5,114.5C 98.6667,114.833 97.8333,115.167 97,115.5C 95.6244,115.316 94.7911,114.649 94.5,113.5 Z"/></g>
<g><path style="opacity:0.51" fill="#d1d6dc" d="M 101.5,115.5 C 102.946,114.387 104.613,114.22 106.5,115C 104.866,115.494 103.199,115.66 101.5,115.5 Z"/></g>
<g><path style="opacity:0.963" fill="#d3d8dc" d="M 117.5,113.5 C 119.429,113.231 121.095,113.731 122.5,115C 121.667,115.167 120.833,115.333 120,115.5C 118.624,115.316 117.791,114.649 117.5,113.5 Z"/></g>
</svg>
